<?xml version="1.0" encoding="utf-8"?>
<!-- Generator: Adobe Illustrator 26.3.1, SVG Export Plug-In . SVG Version: 6.00 Build 0)  -->
<svg version="1.1" id="Layer_1" xmlns="http://www.w3.org/2000/svg" xmlns:xlink="http://www.w3.org/1999/xlink" x="0px"
	y="0px" viewBox="0 0 4000 4000" style="enable-background:new 0 0 4000 4000;" xml:space="preserve">
	<style type="text/css">
		.st0 {
			fill: #04203E;
		}
	</style>
	<g>
		<g>
			<path class="st0" d="M3214.86,2016.67c88.86-97.6,153.75-192.58,224.29-304.21c24.55-38.86,107.24-203.08,141.17-213.28
			c65.54-19.71,87.08,36.11,79.02,92.38c-19.68,137.28-194.98,383.66-286.27,490.23c-752.72,878.78-2364.45,958.01-2968.58-137.31
			c-55.59-100.79-146.81-298.63-165.91-409.43c-3.62-21.03-10.23-49.15,13.4-61.08c19.53-5.02,37.4,44.19,43.06,59.1
			c16.03,42.16,26.93,90.58,43.69,133.93C818.13,2906.33,2400.12,2911.55,3214.86,2016.67z" />
			<path class="st0" d="M3771.96,1477.55c-8.14-8.99-15.41-30.78-26.31-44.04c-28.2-34.28-60.76-54.5-102.88-67.78
			c-26.25-8.28-118.11-17.1-127.45-24.42c-8.48-6.64-7.59-22.97-4.93-32.99c96.81-52.55,256.2-5.41,326.31,75.9
			C3901.16,1458.98,3817.1,1527.41,3771.96,1477.55z" />
			<path class="st0" d="M349.34,1293.53c-13.61,11.87-86.14,25.34-109.15,33.67c-22.07,7.99-96.81,62.78-100.24,12.68
			c-4.6-67.2,153.64-117.86,207.45-81.13C359.34,1266.91,359.7,1284.49,349.34,1293.53z" />
		</g>
	</g>
</svg>